# File created by Blade
# Date/Time:  Mon Sep 22 16:45:27 2014
# Frame Rate: 120.000 fps
#------------------------------------------------------
:FULLY-SPECIFIED
:DEGREES
2970
root 4.757597 39.581219 0.501945 26.620497 22.242411 55.321921
RightUpLeg -3.646588 -25.495750 -44.317542
RightLeg 19.615530 -0.000000 -0.000000
RightFoot -27.272609 -21.440503 21.942806
RightToeBase 8.634002 -0.000000 -0.000000
LeftUpLeg -29.657095 24.059191 19.723101
LeftLeg 113.472831 -0.000000 -0.000000
LeftFoot 18.407227 17.117550 -18.646742
LeftToeBase -2.249553 -0.000000 0.000000
Spine 16.001464 -3.928001 -24.733713
RightShoulder -3.577843 -13.814160 -23.984971
RightArm -9.909203 55.284127 44.972095
RightForeArm 2.643077 -0.000000 138.723775
RightHand -2.472837 -0.000000 -25.318454
RightHandThumb1 -24.326973 -0.000000 -32.862282
LeftShoulder -31.035869 33.065311 -10.761938
LeftArm 24.795021 -28.872377 -75.561480
LeftForeArm 19.607872 0.000000 46.893826
LeftHand -21.041172 0.000000 7.049227
LeftHandThumb1 -26.253704 0.000000 33.147579
Head -0.405291 -24.388373 -18.894706
2971
root 4.753567 39.574531 0.509277 26.550866 22.303556 55.247469
RightUpLeg -3.595094 -25.430638 -44.223639
RightLeg 19.623642 -0.000000 -0.000000
RightFoot -27.324980 -21.498442 21.977511
RightToeBase 8.594057 -0.000000 -0.000000
LeftUpLeg -29.778651 24.119516 19.607642
LeftLeg 113.162703 -0.000000 -0.000000
LeftFoot 18.458893 17.067743 -18.487891
LeftToeBase -2.191958 -0.000000 0.000000
Spine 16.073967 -3.881726 -24.574961
RightShoulder -3.603537 -13.805698 -23.981805
RightArm -10.047526 55.357868 44.864556
RightForeArm 2.612837 0.000000 138.792759
RightHand -2.456298 0.000000 -25.453833
RightHandThumb1 -24.326973 -0.000000 -32.862282
LeftShoulder -31.151336 33.113447 -10.871647
LeftArm 24.808980 -28.895283 -75.709342
LeftForeArm 19.899585 -0.000000 46.482969
LeftHand -20.980209 -0.000000 7.011328
LeftHandThumb1 -26.253704 0.000000 33.147579
Head -0.447857 -24.477429 -18.883384
2972
root 4.752222 39.567411 0.517337 26.489929 22.368953 55.195703
RightUpLeg -3.529692 -25.358681 -44.155149
RightLeg 19.637402 -0.000000 -0.000000
RightFoot -27.424954 -21.553056 22.051152
RightToeBase 8.653642 -0.000000 -0.000000
LeftUpLeg -29.932621 24.193540 19.451194
LeftLeg 112.886284 -0.000000 -0.000000
LeftFoot 18.522784 17.068070 -18.438449
LeftToeBase -2.308310 -0.000000 0.000000
Spine 16.128685 -3.814686 -24.426434
RightShoulder -3.640713 -13.834217 -24.006633
RightArm -10.077257 55.496743 44.884514
RightForeArm 2.515265 -0.000000 138.870438
RightHand -2.576550 0.000000 -25.490162
RightHandThumb1 -24.326973 -0.000000 -32.862282
LeftShoulder -31.173328 33.128758 -10.907003
LeftArm 24.651372 -28.892360 -75.759234
LeftForeArm 20.044091 -0.000000 46.168294
LeftHand -20.915954 -0.000000 7.144628
LeftHandThumb1 -26.253704 0.000000 33.147579
Head -0.425064 -24.558635 -18.897538
2973
root 4.750375 39.558711 0.524821 26.435797 22.442255 55.145987
RightUpLeg -3.461932 -25.314776 -44.084670
RightLeg 19.640414 -0.000000 -0.000000
RightFoot -27.461451 -21.611452 22.066756
RightToeBase 8.526672 -0.000000 -0.000000
LeftUpLeg -30.122061 24.306740 19.277027
LeftLeg 112.642727 -0.000000 -0.000000
LeftFoot 18.623374 17.140896 -18.364451
LeftToeBase -2.379289 -0.000000 0.000000
Spine 16.175261 -3.765866 -24.287218
RightShoulder -3.652052 -13.920790 -24.023990
RightArm -10.050836 55.688919 44.931065
RightForeArm 2.502214 -0.000000 138.947572
RightHand -2.607946 0.000000 -25.625243
RightHandThumb1 -24.326973 -0.000000 -32.862282
LeftShoulder -31.262724 33.174539 -10.980928
LeftArm 24.580735 -28.931841 -75.857633
LeftForeArm 20.276891 -0.000000 45.828669
LeftHand -20.747999 -0.000000 7.049694
LeftHandThumb1 -26.253704 0.000000 33.147579
Head -0.389467 -24.601181 -18.893377
2974
root 4.748963 39.549369 0.533035 26.400539 22.522720 55.112624
RightUpLeg -3.392481 -25.314404 -44.028620
RightLeg 19.649852 -0.000000 -0.000000
RightFoot -27.495070 -21.688375 22.027263
RightToeBase 8.464277 -0.000000 -0.000000
LeftUpLeg -30.374421 24.478942 19.053365
LeftLeg 112.418552 -0.000000 -0.000000
LeftFoot 18.751383 17.350106 -18.267375
LeftToeBase -2.294522 -0.000000 0.000000
Spine 16.209770 -3.733263 -24.177276
RightShoulder -3.650433 -13.948233 -24.017893
RightArm -10.145017 55.834072 44.855866
RightForeArm 2.436588 -0.000000 139.024621
RightHand -2.680172 -0.000000 -25.539372
RightHandThumb1 -24.326973 -0.000000 -32.862282
LeftShoulder -31.316387 33.186154 -11.007247
LeftArm 24.402293 -28.964886 -75.905618
LeftForeArm 20.461489 -0.000000 45.568905
LeftHand -20.834071 -0.000000 6.996267
LeftHandThumb1 -26.253704 0.000000 33.147579
Head -0.351512 -24.660031 -18.854253
2975
root 4.747247 39.539106 0.541700 26.369553 22.628884 55.072544
RightUpLeg -3.312200 -25.322357 -43.957658
RightLeg 19.664585 -0.000000 -0.000000
RightFoot -27.551169 -21.764185 22.007114
RightToeBase 8.441755 -0.000000 -0.000000
LeftUpLeg -30.681947 24.714171 18.816176
LeftLeg 112.244503 -0.000000 -0.000000
LeftFoot 18.812801 17.628836 -18.238618
LeftToeBase -2.284462 -0.000000 0.000000
Spine 16.241027 -3.699638 -24.041539
RightShoulder -3.687999 -14.035538 -23.973300
RightArm -10.275162 56.001655 44.706140
RightForeArm 2.712535 0.000000 139.113441
RightHand -2.572215 0.000000 -25.376136
RightHandThumb1 -24.326973 -0.000000 -32.862282
LeftShoulder -31.366451 33.229157 -11.072844
LeftArm 24.269567 -29.020216 -75.953737
LeftForeArm 20.685009 -0.000000 45.322710
LeftHand -20.972933 -0.000000 7.072452
LeftHandThumb1 -26.253704 0.000000 33.147579
Head -0.293476 -24.747344 -18.822033
2976
root 4.743668 39.527347 0.549751 26.360409 22.765197 55.037830
RightUpLeg -3.216380 -25.346480 -43.875991
RightLeg 19.664026 -0.000000 -0.000000
RightFoot -27.622190 -21.885494 21.944381
RightToeBase 8.474620 -0.000000 -0.000000
LeftUpLeg -31.091733 25.023387 18.529026
LeftLeg 112.125568 -0.000000 -0.000000
LeftFoot 18.924400 17.880600 -18.042914
LeftToeBase -2.331224 -0.000000 0.000000
Spine 16.263227 -3.695568 -23.904481
RightShoulder -3.741834 -14.125383 -23.936965
RightArm -10.347185 56.051891 44.626140
RightForeArm 2.716742 0.000000 139.198141
RightHand -2.486969 -0.000000 -25.433520
RightHandThumb1 -24.326973 -0.000000 -32.862282
LeftShoulder -31.399367 33.263859 -11.115594
LeftArm 24.087303 -29.099350 -75.971266
LeftForeArm 20.790864 0.000000 45.081949
LeftHand -20.928412 0.000000 7.095287
LeftHandThumb1 -26.253704 0.000000 33.147579
Head -0.228889 -24.826586 -18.792044
2977
root 4.737675 39.515564 0.553637 26.398412 22.942912 55.025856
RightUpLeg -3.121310 -25.417270 -43.799348
RightLeg 19.664879 -0.000000 -0.000000
RightFoot -27.663555 -21.952014 21.947423
RightToeBase 8.369423 -0.000000 -0.000000
LeftUpLeg -31.637529 25.413739 18.163120
LeftLeg 112.078376 -0.000000 -0.000000
LeftFoot 18.975686 18.081800 -17.973879
LeftToeBase -2.482429 -0.000000 0.000000
Spine 16.265049 -3.708751 -23.766273
RightShoulder -3.824909 -14.163720 -23.898956
RightArm -10.417081 56.127400 44.562621
RightForeArm 2.675351 -0.000000 139.274916
RightHand -2.512445 -0.000000 -25.378351
RightHandThumb1 -24.326973 -0.000000 -32.862282
LeftShoulder -31.375704 33.279400 -11.128134
LeftArm 23.866419 -29.191488 -75.956123
LeftForeArm 20.822602 0.000000 44.899311
LeftHand -21.069974 -0.000000 7.100699
LeftHandThumb1 -26.253704 0.000000 33.147579
Head -0.143722 -24.945855 -18.741391
2978
root 4.732050 39.505108 0.555778 26.461424 23.118906 55.024675
RightUpLeg -3.040336 -25.462654 -43.723350
RightLeg 19.662029 -0.000000 -0.000000
RightFoot -27.742217 -22.069966 21.954417
RightToeBase 8.324189 -0.000000 -0.000000
LeftUpLeg -32.283523 25.971389 17.712844
LeftLeg 112.071501 -0.000000 -0.000000
LeftFoot 19.099017 18.260267 -17.891039
LeftToeBase -2.626704 -0.000000 0.000000
Spine 16.241922 -3.731100 -23.640970
RightShoulder -3.905527 -14.177554 -23.849053
RightArm -10.597267 56.135539 44.412480
RightForeArm 2.648500 -0.000000 139.366355
RightHand -2.538664 0.000000 -25.394189
RightHandThumb1 -24.326973 -0.000000 -32.862282
LeftShoulder -31.384730 33.319896 -11.163484
LeftArm 23.687663 -29.282675 -75.941529
LeftForeArm 20.895023 -0.000000 44.705392
LeftHand -21.111525 0.000000 7.195990
LeftHandThumb1 -26.253704 0.000000 33.147579
Head -0.050701 -25.051606 -18.675026
2979
root 4.727029 39.495695 0.558512 26.513215 23.298408 55.041849
RightUpLeg -2.931609 -25.486126 -43.670371
RightLeg 19.653475 -0.000000 -0.000000
RightFoot -27.810873 -22.221982 21.962024
RightToeBase 8.228147 -0.000000 -0.000000
LeftUpLeg -32.966948 26.665054 17.190705
LeftLeg 112.127613 -0.000000 -0.000000
LeftFoot 19.242183 18.407137 -17.972229
LeftToeBase -3.016189 -0.000000 0.000000
Spine 16.251717 -3.762498 -23.547353
RightShoulder -3.971338 -14.191143 -23.790857
RightArm -10.734590 56.154523 44.307691
RightForeArm 2.385688 -0.000000 139.452859
RightHand -2.679339 0.000000 -25.508865
RightHandThumb1 -24.326973 -0.000000 -32.862282
LeftShoulder -31.430153 33.384933 -11.207276
LeftArm 23.582881 -29.394892 -75.987830
LeftForeArm 20.981708 -0.000000 44.494860
LeftHand -21.180539 -0.000000 7.055790
LeftHandThumb1 -26.253704 0.000000 33.147579
Head 0.014466 -25.206012 -18.589749
